<?xml version="1.0" encoding="utf-8"?>
<!-- Svg Vector Icons : http://www.onlinewebfonts.com/icon -->
<!DOCTYPE svg PUBLIC "-//W3C//DTD SVG 1.1//EN" "http://www.w3.org/Graphics/SVG/1.1/DTD/svg11.dtd">
<svg version="1.1" xmlns="http://www.w3.org/2000/svg" xmlns:xlink="http://www.w3.org/1999/xlink" x="0px" y="0px" viewBox="0 0 1000 1000" enable-background="new 0 0 1000 1000" xml:space="preserve">
<metadata> Svg Vector Icons : http://www.onlinewebfonts.com/icon </metadata>
<g><g transform="translate(0.000000,511.000000) scale(0.100000,-0.100000)"><path d="M3071.1,4998.2c-729.5-92-1307.8-371.9-1812.6-878.7c-752-750-1046.3-1777.8-809.2-2822C680.3,294.2,1444.5-547.7,2427.4-876.7c353.5-118.5,658-159.4,1058.5-147.1c359.7,12.3,580.3,49,868.5,145.1c165.5,57.2,465.9,194.1,608.9,280l77.7,47l1833-1830.9c1273.1-1273.1,1851.4-1837.1,1890.2-1847.3c32.7-6.1,100.1-8.2,151.2-2c87.9,10.2,108.3,26.5,388.3,302.4c324.9,324.9,353.5,376,312.6,535.4c-20.4,77.6-216.6,277.9-1853.4,1918.8L5932,355.5l40.9,59.3c132.8,186,312.7,639.6,384.2,966.6c45,204.4,63.3,774.5,32.7,1009.5c-171.6,1287.4-1146.4,2319.3-2425.6,2566.6C3716.8,5004.4,3279.5,5024.8,3071.1,4998.2z M3935.5,4203.3c441.4-116.5,782.6-316.7,1087.1-631.4c200.2-208.4,314.7-371.9,425-602.8c365.8-770.4,275.9-1665.4-235-2348c-339.2-451.6-823.5-752-1410-876.6c-175.7-38.8-678.4-32.7-862.3,8.2C2110.7-59.4,1491.5,494.4,1230,1279.1c-94,286.1-122.6,498.6-108.3,815.3c47,1058.5,813.3,1939.3,1859.6,2139.5C3197.8,4274.8,3735.2,4258.5,3935.5,4203.3z"/><path d="M1534.4,2875.1c-155.3-94-188-198.2-145.1-449.6c38.8-226.8,75.6-335.1,177.8-543.6c151.2-310.6,435.3-637.6,741.8-856.2c71.5-53.1,369.9-220.7,660-371.9c547.6-288.1,690.7-369.9,888.9-502.7l118.5-79.7l151.2,61.3c159.4,63.3,445.5,228.9,455.7,261.6c10.2,30.7-306.5,261.6-596.7,437.3c-132.8,79.7-445.5,253.4-694.8,382.1c-247.3,128.8-504.7,273.8-572.2,322.9c-314.7,220.7-625.3,658-684.6,966.6c-12.3,63.3-32.7,147.1-42.9,188c-20.4,81.7-104.2,175.7-177.8,204.3C1734.7,2926.2,1599.8,2915.9,1534.4,2875.1z"/><path d="M4855.1,2868.9c-96-65.4-141-134.9-159.4-241.1l-16.4-92l-1117.8-6.1c-615.1-2-1117.8-12.3-1117.8-20.4c0-8.2,30.6-73.6,67.4-147.1l65.4-132.8l987-6.1c792.9-4.1,985-10.2,985-30.7c0-14.3-42.9-92-98.1-169.6l-96-141l-694.8-10.2l-694.8-10.2l61.3-42.9c34.7-22.5,141-89.9,237-147.1l177.8-106.3h277.9c153.3,0,277.9-8.2,277.9-16.3c0-8.2-51.1-47-112.4-83.8l-114.4-69.5l128.7-71.5c71.5-38.8,214.6-120.6,318.8-181.9l190-112.4l112.4,87.9c230.9,177.8,490.4,494.5,625.3,764.3c130.8,259.5,220.7,658,179.8,805.1c-20.4,75.6-94,161.4-177.8,204.4C5071.7,2930.2,4928.6,2918,4855.1,2868.9z"/><path d="M2225.1,498.5c-36.8-26.6-67.4-53.1-67.4-61.3c0-42.9,292.2-216.6,506.8-300.4l98.1-38.8l85.8,53.1c47,30.7,85.8,59.3,85.8,65.4c0,10.2-615.1,327-635.5,327C2294.6,543.5,2259.9,523,2225.1,498.5z"/><path d="M1373-805.2c-16.4-165.5,14.3-431.2,73.6-602.8c87.9-263.6,175.7-396.4,435.3-655.9c329-331,562-482.3,1297.6-844c320.8-157.3,660-337.2,756.1-398.5l173.7-112.4l-373.9-2c-425,0-431.2-2-739.7-212.5l-153.3-104.2l805.1-10.2l805.1-10.2l69.5-132.8c36.8-73.6,67.4-145.1,67.4-157.3c0-20.4-226.8-26.6-1036-30.6l-1036-6.1l-36.8-112.4c-18.4-61.3-34.7-132.8-34.7-157.3l-2-47h1111.6H4665l14.3-85.8c8.2-47,32.7-116.5,55.2-151.2c42.9-71.5,183.9-151.2,265.6-151.2c73.6,0,224.8,81.7,271.8,149.2c85.8,116.5,40.9,527.2-94,876.7c-132.8,349.4-441.4,707-833.7,966.5c-114.4,77.7-472,269.8-794.9,429.1c-320.8,161.4-647.8,329-725.4,378c-171.7,104.2-316.7,208.5-318.8,230.9c0,8.2,233,14.3,517,14.3h517l202.3,124.7c365.8,220.7,427.1,202.3-649.8,202.3h-933.9l-49,100.1c-28.6,55.2-61.3,143-75.6,194.1c-22.5,89.9-32.7,100.1-147.1,157.4c-67.4,34.7-196.2,110.3-288.1,169.6s-175.7,112.4-188,120.6C1393.4-668.3,1381.2-707.1,1373-805.2z"/><path d="M4834.6-993.2l-153.3-79.7l-51.1-147.1c-63.3-186-139-288.1-341.3-468c-149.2-132.8-388.3-306.5-463.9-335.1c-24.5-8.2,53.1-61.3,265.7-173.7c165.5-89.9,312.6-171.7,329-183.9c34.7-30.7,228.9,124.6,468,376c200.3,208.4,324.9,414.8,388.3,643.7l36.8,128.7l-163.5,159.4l-161.4,157.4L4834.6-993.2z"/><path d="M2114.8-2977.4c-435.3-359.7-686.6-841.9-725.4-1391.6c-10.2-138.9-4.1-177.8,28.6-237c81.7-149.2,249.3-212.5,404.6-153.3c128.7,49,186,143,212.5,343.3c61.3,486.3,267.7,805.1,705,1089.2l181.9,118.5l-151.2,69.5c-83.8,36.8-237,114.4-339.2,169.6l-186,100.1L2114.8-2977.4z"/></g></g>
</svg>