<svg width="150" height="25" viewBox="0 0 150 25" fill="none" xmlns="http://www.w3.org/2000/svg">
<path d="M16.284 21V7.952L11.188 17.668H9.032L3.936 7.952V21H0.072V1.12H4.216L10.096 12.432L16.032 1.12H20.148V21H16.284ZM30.4925 21.28C28.9058 21.28 27.5338 20.9347 26.3765 20.244C25.2378 19.5533 24.3511 18.6387 23.7165 17.5C23.0818 16.3427 22.7645 15.092 22.7645 13.748C22.7645 12.3667 23.0725 11.0973 23.6885 9.94C24.3231 8.764 25.2191 7.83067 26.3765 7.14C27.5338 6.43067 28.9151 6.076 30.5205 6.076C32.1258 6.076 33.4978 6.43067 34.6365 7.14C35.7751 7.83067 36.6431 8.75467 37.2405 9.912C37.8565 11.0507 38.1645 12.2827 38.1645 13.608C38.1645 14.0933 38.1365 14.5133 38.0805 14.868H26.7405C26.8338 16.0067 27.2538 16.9027 28.0005 17.556C28.7658 18.2093 29.6431 18.536 30.6325 18.536C31.3791 18.536 32.0791 18.3587 32.7325 18.004C33.4045 17.6307 33.8618 17.1453 34.1045 16.548L37.3245 17.444C36.7831 18.564 35.9151 19.488 34.7205 20.216C33.5258 20.9253 32.1165 21.28 30.4925 21.28ZM26.6565 12.488H34.3285C34.2165 11.3867 33.7965 10.5 33.0685 9.828C32.3591 9.13733 31.4911 8.792 30.4645 8.792C29.4565 8.792 28.5885 9.13733 27.8605 9.828C27.1511 10.5 26.7498 11.3867 26.6565 12.488ZM54.0862 21H50.3342V12.768C50.3342 11.592 50.1289 10.7333 49.7182 10.192C49.3075 9.65067 48.7382 9.38 48.0102 9.38C47.5062 9.38 46.9929 9.51067 46.4702 9.772C45.9662 10.0333 45.5089 10.3973 45.0982 10.864C44.6875 11.312 44.3889 11.8347 44.2022 12.432V21H40.4502V6.328H43.8382V9.044C44.3795 8.12933 45.1635 7.41067 46.1902 6.888C47.2169 6.34667 48.3742 6.076 49.6622 6.076C50.5769 6.076 51.3235 6.244 51.9022 6.58C52.4809 6.89733 52.9289 7.336 53.2462 7.896C53.5635 8.43733 53.7782 9.05333 53.8902 9.744C54.0209 10.4347 54.0862 11.1347 54.0862 11.844V21ZM56.4526 13.664C56.4526 12.264 56.7326 10.9853 57.2926 9.828C57.8526 8.67067 58.6273 7.756 59.6166 7.084C60.606 6.412 61.7353 6.076 63.0046 6.076C64.0873 6.076 65.058 6.34667 65.9166 6.888C66.794 7.41067 67.4753 8.08267 67.9606 8.904V0.559999H71.7126V16.8C71.7126 17.2107 71.778 17.5 71.9086 17.668C72.0393 17.8173 72.2633 17.9107 72.5806 17.948V21C71.9086 21.1307 71.3766 21.196 70.9846 21.196C70.3126 21.196 69.7526 21.028 69.3046 20.692C68.8753 20.356 68.6326 19.9173 68.5766 19.376L68.5206 18.452C67.9793 19.3667 67.242 20.0667 66.3086 20.552C65.394 21.0373 64.4326 21.28 63.4246 21.28C62.062 21.28 60.858 20.944 59.8126 20.272C58.7673 19.5813 57.946 18.6667 57.3486 17.528C56.7513 16.3707 56.4526 15.0827 56.4526 13.664ZM67.9606 15.624V12.124C67.662 11.3027 67.1486 10.6213 66.4206 10.08C65.6926 9.53867 64.946 9.268 64.1806 9.268C63.4153 9.268 62.7433 9.48267 62.1646 9.912C61.586 10.3227 61.138 10.8733 60.8206 11.564C60.5033 12.236 60.3446 12.964 60.3446 13.748C60.3446 14.5507 60.522 15.288 60.8766 15.96C61.2313 16.6133 61.7073 17.136 62.3046 17.528C62.9206 17.9013 63.6206 18.088 64.4046 18.088C65.114 18.088 65.814 17.8547 66.5046 17.388C67.214 16.9213 67.6993 16.3333 67.9606 15.624ZM82.1995 21.28C80.6128 21.28 79.2408 20.9347 78.0835 20.244C76.9448 19.5533 76.0582 18.6387 75.4235 17.5C74.7888 16.3427 74.4715 15.092 74.4715 13.748C74.4715 12.3667 74.7795 11.0973 75.3955 9.94C76.0302 8.764 76.9262 7.83067 78.0835 7.14C79.2408 6.43067 80.6222 6.076 82.2275 6.076C83.8328 6.076 85.2048 6.43067 86.3435 7.14C87.4822 7.83067 88.3502 8.75467 88.9475 9.912C89.5635 11.0507 89.8715 12.2827 89.8715 13.608C89.8715 14.0933 89.8435 14.5133 89.7875 14.868H78.4475C78.5408 16.0067 78.9608 16.9027 79.7075 17.556C80.4728 18.2093 81.3502 18.536 82.3395 18.536C83.0862 18.536 83.7862 18.3587 84.4395 18.004C85.1115 17.6307 85.5688 17.1453 85.8115 16.548L89.0315 17.444C88.4902 18.564 87.6222 19.488 86.4275 20.216C85.2328 20.9253 83.8235 21.28 82.1995 21.28ZM78.3635 12.488H86.0355C85.9235 11.3867 85.5035 10.5 84.7755 9.828C84.0662 9.13733 83.1982 8.792 82.1715 8.792C81.1635 8.792 80.2955 9.13733 79.5675 9.828C78.8582 10.5 78.4568 11.3867 78.3635 12.488ZM92.1292 0.559999H95.8812V16.296C95.8812 16.9867 95.9932 17.444 96.2172 17.668C96.4412 17.892 96.7492 18.004 97.1412 18.004C97.4399 18.004 97.7479 17.9667 98.0652 17.892C98.3826 17.8173 98.6626 17.724 98.9052 17.612L99.4092 20.468C98.9052 20.7107 98.3172 20.8973 97.6452 21.028C96.9732 21.1587 96.3666 21.224 95.8252 21.224C94.6492 21.224 93.7346 20.916 93.0812 20.3C92.4466 19.6653 92.1292 18.7693 92.1292 17.612V0.559999ZM101.38 24.22L102.136 20.888H100.96V16.968H104.208V20.888L103.06 24.22H101.38ZM124.128 21V7.952L119.032 17.668H116.876L111.78 7.952V21H107.916V1.12H112.06L117.94 12.432L123.876 1.12H127.992V21H124.128ZM132.142 21V1.12H139.366C141.532 1.12 143.342 1.568 144.798 2.464C146.254 3.34133 147.346 4.536 148.074 6.048C148.802 7.54133 149.166 9.20267 149.166 11.032C149.166 13.048 148.765 14.8027 147.962 16.296C147.16 17.7893 146.021 18.9467 144.546 19.768C143.072 20.5893 141.345 21 139.366 21H132.142ZM145.274 11.032C145.274 9.744 145.041 8.61467 144.574 7.644C144.108 6.65467 143.436 5.88933 142.558 5.348C141.681 4.788 140.617 4.508 139.366 4.508H136.006V17.612H139.366C140.636 17.612 141.709 17.332 142.586 16.772C143.464 16.1933 144.126 15.4093 144.574 14.42C145.041 13.412 145.274 12.2827 145.274 11.032Z" fill="#01579B"/>
</svg>
