<svg width="24" height="24" viewBox="0 0 24 24" fill="none" xmlns="http://www.w3.org/2000/svg">
<g clip-path="url(#clip0)">
<path d="M19 20H6.00001C2.87438 20.0019 0.2709 17.6038 0.0163703 14.4886C-0.23816 11.3733 1.94153 8.58453 5.02601 8.07899C6.44572 5.56188 9.11012 4.0035 12 3.99993C13.802 3.99312 15.5525 4.60129 16.962 5.72399C18.3461 6.82185 19.3301 8.34497 19.762 10.058C22.3459 10.455 24.1878 12.7755 23.988 15.3821C23.7882 17.9887 21.6142 20.0014 19 20ZM12 5.99998C9.83172 6.00255 7.83268 7.17209 6.76801 9.06099L6.30001 9.89999L5.35101 10.055C3.30129 10.3984 1.85602 12.2543 2.02522 14.3257C2.19442 16.3971 3.92173 17.9938 6.00001 18H19C20.5686 18.0016 21.8736 16.7946 21.9942 15.2307C22.1148 13.6667 21.0103 12.2739 19.46 12.035L18.144 11.835L17.822 10.543C17.1573 7.8698 14.7546 5.99495 12 5.99998ZM13.45 16H10.55V13H8.00001L12 8.99999L16 13H13.45V16Z" fill="#01579B"/>
</g>
<defs>
<clipPath id="clip0">
<rect width="24" height="24" fill="white"/>
</clipPath>
</defs>
</svg>
