<svg width="20" height="16" viewBox="0 0 20 16" fill="none" xmlns="http://www.w3.org/2000/svg">
<path d="M19.2078 6.11615C18.6797 4.88091 17.9691 3.81708 17.0762 2.92405C16.1834 2.03117 15.1194 1.32065 13.8841 0.792415C12.6488 0.264177 11.3544 0 10 0C8.64577 0 7.35115 0.264216 6.11607 0.792415C4.88099 1.32085 3.81701 2.03117 2.92417 2.92405C2.03113 3.81708 1.32073 4.88091 0.792376 6.11615C0.264138 7.35139 0 8.64589 0 10.0001C0 11.9494 0.524524 13.7465 1.57365 15.3909C1.71492 15.6067 1.91585 15.7145 2.17632 15.7145H17.8237C18.0841 15.7145 18.285 15.6066 18.4263 15.3909C19.4755 13.7391 20 11.9421 20 10.0001C20 8.64589 19.736 7.35139 19.2078 6.11615ZM8.98989 1.84721C9.26908 1.56814 9.60565 1.42858 10 1.42858C10.3944 1.42858 10.731 1.56818 11.01 1.84721C11.2891 2.12612 11.4287 2.46285 11.4287 2.8572C11.4287 3.25155 11.2891 3.58817 11.01 3.8672C10.731 4.14623 10.3944 4.28583 10 4.28583C9.60565 4.28583 9.26892 4.14623 8.98989 3.8672C8.71097 3.58813 8.57134 3.25155 8.57134 2.8572C8.57134 2.46285 8.71082 2.12616 8.98989 1.84721ZM3.86724 11.0102C3.58821 11.2891 3.25148 11.429 2.85713 11.429C2.46289 11.429 2.12616 11.2891 1.84713 11.0102C1.56806 10.7314 1.42866 10.3945 1.42866 10.0001C1.42866 9.60577 1.56806 9.26919 1.84713 8.99012C2.1262 8.71105 2.46289 8.57153 2.85713 8.57153C3.25148 8.57153 3.58836 8.71105 3.86724 8.99012C4.14615 9.26919 4.28579 9.60577 4.28579 10.0001C4.28579 10.3945 4.14615 10.7311 3.86724 11.0102ZM6.01017 6.01013C5.73098 6.28912 5.39441 6.42876 5.00002 6.42876C4.60563 6.42876 4.26894 6.28897 3.98987 6.01013C3.71095 5.73122 3.57136 5.39449 3.57136 5.00014C3.57136 4.60579 3.7108 4.26917 3.98987 3.99014C4.26906 3.71107 4.60563 3.57152 5.00002 3.57152C5.39437 3.57152 5.7311 3.71111 6.01017 3.99014C6.28909 4.26921 6.42868 4.60579 6.42868 5.00014C6.42868 5.39437 6.28905 5.73106 6.01017 6.01013ZM12.3325 6.10505L11.2052 10.3684C11.5775 10.6212 11.8453 10.9597 12.009 11.384C12.1725 11.8081 12.195 12.2434 12.0759 12.6898C11.9271 13.2627 11.596 13.6981 11.0825 13.9955C10.569 14.2932 10.026 14.3677 9.45296 14.2188C8.88016 14.07 8.44476 13.739 8.14724 13.2255C7.84972 12.7119 7.77533 12.169 7.92411 11.5959C8.0431 11.1496 8.27749 10.7832 8.62724 10.4969C8.97687 10.2103 9.3749 10.0486 9.82131 10.0113L10.9486 5.74791C11.0006 5.55449 11.1122 5.40739 11.2833 5.30692C11.4545 5.20665 11.6329 5.18246 11.8191 5.23449C12.0053 5.28663 12.1484 5.39629 12.2487 5.56363C12.3494 5.73122 12.3772 5.91162 12.3325 6.10505ZM13.99 6.01013C13.7109 5.73122 13.5713 5.39449 13.5713 5.00014C13.5713 4.60579 13.7109 4.26917 13.99 3.99014C14.2691 3.71111 14.6056 3.57152 15 3.57152C15.3944 3.57152 15.7309 3.71111 16.01 3.99014C16.2891 4.26917 16.4288 4.60579 16.4288 5.00014C16.4288 5.39437 16.2891 5.7311 16.01 6.01013C15.7309 6.28912 15.3944 6.42876 15 6.42876C14.6056 6.42876 14.2691 6.28912 13.99 6.01013ZM18.1529 11.0102C17.8738 11.2891 17.5372 11.429 17.1429 11.429C16.7485 11.429 16.4119 11.2891 16.1328 11.0102C15.8538 10.7314 15.7143 10.3945 15.7143 10.0001C15.7143 9.60577 15.8538 9.26919 16.1328 8.99012C16.4119 8.71105 16.7485 8.57153 17.1429 8.57153C17.5372 8.57153 17.8738 8.71105 18.1529 8.99012C18.4319 9.26919 18.5713 9.60577 18.5713 10.0001C18.5713 10.3945 18.4319 10.7311 18.1529 11.0102Z" fill="#526484"/>
</svg>
