<svg width="20" height="20" viewBox="0 0 20 20" fill="none" xmlns="http://www.w3.org/2000/svg">
<g clip-path="url(#clip0)">
<path d="M17.5 5.00001C17.5 3.61925 18.6193 2.50001 20 2.50001C18.6194 2.50001 17.5 1.38072 17.5 0C17.5 1.38068 16.3807 2.50001 15 2.50001C16.3807 2.50001 17.5 3.61921 17.5 5.00001Z" fill="#526484"/>
<path d="M18.1251 7.49998C18.1251 8.5355 17.2856 9.37497 16.2501 9.37497C17.2857 9.37497 18.1251 10.2145 18.1251 11.25C18.1251 10.2144 18.9646 9.37497 20.0001 9.37497C18.9645 9.37502 18.1251 8.53554 18.1251 7.49998Z" fill="#526484"/>
<path d="M8.74999 7.49997C8.74999 5.4289 10.4289 3.74999 12.5 3.74999C10.4289 3.74999 8.74999 2.07107 8.74999 0C8.74999 2.07107 7.07107 3.74999 5 3.74999C7.07107 3.74999 8.74999 5.42894 8.74999 7.49997Z" fill="#526484"/>
<path d="M13.75 3.74997L0 17.5L2.5 20L16.25 6.24997L13.75 3.74997ZM11.6162 7.75876L13.3838 5.99121L14.0088 6.61622L12.2412 8.38378L11.6162 7.75876Z" fill="#526484"/>
</g>
<defs>
<clipPath id="clip0">
<rect width="20" height="20" fill="white"/>
</clipPath>
</defs>
</svg>
