<svg width="224" height="36" viewBox="0 0 224 36" fill="none" xmlns="http://www.w3.org/2000/svg">
<path d="M24.426 31V11.428L16.782 26.002H13.548L5.904 11.428V31H0.108V1.18H6.324L15.144 18.148L24.048 1.18H30.222V31H24.426ZM45.7387 31.42C43.3587 31.42 41.3007 30.902 39.5647 29.866C37.8567 28.83 36.5267 27.458 35.5747 25.75C34.6227 24.014 34.1467 22.138 34.1467 20.122C34.1467 18.05 34.6087 16.146 35.5327 14.41C36.4847 12.646 37.8287 11.246 39.5647 10.21C41.3007 9.146 43.3727 8.614 45.7807 8.614C48.1887 8.614 50.2467 9.146 51.9547 10.21C53.6627 11.246 54.9647 12.632 55.8607 14.368C56.7847 16.076 57.2467 17.924 57.2467 19.912C57.2467 20.64 57.2047 21.27 57.1207 21.802H40.1107C40.2507 23.51 40.8807 24.854 42.0007 25.834C43.1487 26.814 44.4647 27.304 45.9487 27.304C47.0687 27.304 48.1187 27.038 49.0987 26.506C50.1067 25.946 50.7927 25.218 51.1567 24.322L55.9867 25.666C55.1747 27.346 53.8727 28.732 52.0807 29.824C50.2887 30.888 48.1747 31.42 45.7387 31.42ZM39.9847 18.232H51.4927C51.3247 16.58 50.6947 15.25 49.6027 14.242C48.5387 13.206 47.2367 12.688 45.6967 12.688C44.1847 12.688 42.8827 13.206 41.7907 14.242C40.7267 15.25 40.1247 16.58 39.9847 18.232ZM81.1293 31H75.5013V18.652C75.5013 16.888 75.1933 15.6 74.5773 14.788C73.9613 13.976 73.1073 13.57 72.0153 13.57C71.2593 13.57 70.4893 13.766 69.7053 14.158C68.9493 14.55 68.2633 15.096 67.6473 15.796C67.0313 16.468 66.5833 17.252 66.3033 18.148V31H60.6753V8.992H65.7573V13.066C66.5693 11.694 67.7453 10.616 69.2853 9.832C70.8253 9.02 72.5613 8.614 74.4933 8.614C75.8653 8.614 76.9853 8.866 77.8533 9.37C78.7213 9.846 79.3933 10.504 79.8693 11.344C80.3453 12.156 80.6673 13.08 80.8353 14.116C81.0313 15.152 81.1293 16.202 81.1293 17.266V31ZM84.6789 19.996C84.6789 17.896 85.0989 15.978 85.9389 14.242C86.7789 12.506 87.9409 11.134 89.4249 10.126C90.9089 9.118 92.6029 8.614 94.5069 8.614C96.1309 8.614 97.5869 9.02 98.8749 9.832C100.191 10.616 101.213 11.624 101.941 12.856V0.339999H107.569V24.7C107.569 25.316 107.667 25.75 107.863 26.002C108.059 26.226 108.395 26.366 108.871 26.422V31C107.863 31.196 107.065 31.294 106.477 31.294C105.469 31.294 104.629 31.042 103.957 30.538C103.313 30.034 102.949 29.376 102.865 28.564L102.781 27.178C101.969 28.55 100.863 29.6 99.4629 30.328C98.0909 31.056 96.6489 31.42 95.1369 31.42C93.0929 31.42 91.2869 30.916 89.7189 29.908C88.1509 28.872 86.9189 27.5 86.0229 25.792C85.1269 24.056 84.6789 22.124 84.6789 19.996ZM101.941 22.936V17.686C101.493 16.454 100.723 15.432 99.6309 14.62C98.5389 13.808 97.4189 13.402 96.2709 13.402C95.1229 13.402 94.1149 13.724 93.2469 14.368C92.3789 14.984 91.7069 15.81 91.2309 16.846C90.7549 17.854 90.5169 18.946 90.5169 20.122C90.5169 21.326 90.7829 22.432 91.3149 23.44C91.8469 24.42 92.5609 25.204 93.4569 25.792C94.3809 26.352 95.4309 26.632 96.6069 26.632C97.6709 26.632 98.7209 26.282 99.7569 25.582C100.821 24.882 101.549 24 101.941 22.936ZM123.299 31.42C120.919 31.42 118.861 30.902 117.125 29.866C115.417 28.83 114.087 27.458 113.135 25.75C112.183 24.014 111.707 22.138 111.707 20.122C111.707 18.05 112.169 16.146 113.093 14.41C114.045 12.646 115.389 11.246 117.125 10.21C118.861 9.146 120.933 8.614 123.341 8.614C125.749 8.614 127.807 9.146 129.515 10.21C131.223 11.246 132.525 12.632 133.421 14.368C134.345 16.076 134.807 17.924 134.807 19.912C134.807 20.64 134.765 21.27 134.681 21.802H117.671C117.811 23.51 118.441 24.854 119.561 25.834C120.709 26.814 122.025 27.304 123.509 27.304C124.629 27.304 125.679 27.038 126.659 26.506C127.667 25.946 128.353 25.218 128.717 24.322L133.547 25.666C132.735 27.346 131.433 28.732 129.641 29.824C127.849 30.888 125.735 31.42 123.299 31.42ZM117.545 18.232H129.053C128.885 16.58 128.255 15.25 127.163 14.242C126.099 13.206 124.797 12.688 123.257 12.688C121.745 12.688 120.443 13.206 119.351 14.242C118.287 15.25 117.685 16.58 117.545 18.232ZM138.194 0.339999H143.822V23.944C143.822 24.98 143.99 25.666 144.326 26.002C144.662 26.338 145.124 26.506 145.712 26.506C146.16 26.506 146.622 26.45 147.098 26.338C147.574 26.226 147.994 26.086 148.358 25.918L149.114 30.202C148.358 30.566 147.476 30.846 146.468 31.042C145.46 31.238 144.55 31.336 143.738 31.336C141.974 31.336 140.602 30.874 139.622 29.95C138.67 28.998 138.194 27.654 138.194 25.918V0.339999ZM152.07 35.83L153.204 30.832H151.44V24.952H156.312V30.832L154.59 35.83H152.07ZM186.192 31V11.428L178.548 26.002H175.314L167.67 11.428V31H161.874V1.18H168.09L176.91 18.148L185.814 1.18H191.988V31H186.192ZM198.213 31V1.18H209.049C212.297 1.18 215.013 1.852 217.197 3.196C219.381 4.512 221.019 6.304 222.111 8.572C223.203 10.812 223.749 13.304 223.749 16.048C223.749 19.072 223.147 21.704 221.943 23.944C220.739 26.184 219.031 27.92 216.819 29.152C214.607 30.384 212.017 31 209.049 31H198.213ZM217.911 16.048C217.911 14.116 217.561 12.422 216.861 10.966C216.161 9.482 215.153 8.334 213.837 7.522C212.521 6.682 210.925 6.262 209.049 6.262H204.009V25.918H209.049C210.953 25.918 212.563 25.498 213.879 24.658C215.195 23.79 216.189 22.614 216.861 21.13C217.561 19.618 217.911 17.924 217.911 16.048Z" fill="white"/>
</svg>
