<svg width="24" height="24" viewBox="0 0 24 24" fill="none" xmlns="http://www.w3.org/2000/svg">
<path d="M18.677 19.607L12.962 13.891C10.4196 15.6985 6.91642 15.2563 4.90285 12.8739C2.88929 10.4915 3.03714 6.96359 5.24298 4.758C7.44824 2.55145 10.9765 2.40296 13.3594 4.41641C15.7422 6.42987 16.1846 9.93345 14.377 12.476L20.092 18.192L18.678 19.606L18.677 19.607ZM9.48498 4.99999C7.58868 4.99956 5.95267 6.33068 5.56745 8.18743C5.18224 10.0442 6.15369 11.9163 7.89366 12.6702C9.63362 13.4242 11.6639 12.8528 12.7552 11.3021C13.8466 9.75127 13.699 7.64732 12.402 6.264L13.007 6.864L12.325 6.184L12.313 6.172C11.5648 5.41918 10.5464 4.99713 9.48498 4.99999Z" fill="white"/>
</svg>
