<svg width="24" height="24" viewBox="0 0 24 24" fill="none" xmlns="http://www.w3.org/2000/svg">
<g clip-path="url(#clip0)">
<path d="M19 20H6.00004C2.87441 20.0019 0.270931 17.6039 0.0164008 14.4886C-0.238129 11.3734 1.94156 8.58454 5.02604 8.07901C6.44575 5.56189 9.11015 4.00352 12 3.99995C13.8021 3.99314 15.5525 4.60131 16.962 5.72401C18.3461 6.82186 19.3301 8.34498 19.762 10.058C22.3459 10.455 24.1878 12.7755 23.9881 15.3821C23.7883 17.9887 21.6143 20.0014 19 20ZM12 6C9.83175 6.00256 7.83271 7.17211 6.76804 9.06101L6.30004 9.90001L5.35104 10.055C3.30132 10.3984 1.85605 12.2543 2.02525 14.3257C2.19446 16.3971 3.92176 17.9938 6.00004 18H19C20.5686 18.0016 21.8736 16.7946 21.9942 15.2307C22.1149 13.6667 21.0103 12.2739 19.46 12.035L18.144 11.835L17.822 10.543C17.1573 7.86982 14.7546 5.99496 12 6ZM13.45 16H10.55V13H8.00004L12 9.00001L16 13H13.45V16Z" fill="white"/>
</g>
<defs>
<clipPath id="clip0">
<rect width="24" height="24" fill="white"/>
</clipPath>
</defs>
</svg>
